<svg width="12" height="12" viewBox="0 0 12 12" fill="none" xmlns="http://www.w3.org/2000/svg">
<path d="M7.15656 11.25C6.99329 11.25 6.85528 11.1936 6.74254 11.0808C6.62981 10.9681 6.57344 10.83 6.57344 10.6667V6C6.57344 5.83667 6.62981 5.69861 6.74254 5.58583C6.85528 5.47306 6.99329 5.41667 7.15656 5.41667H10.6553C10.8186 5.41667 10.9566 5.47306 11.0693 5.58583C11.1821 5.69861 11.2384 5.83667 11.2384 6V10.6667C11.2384 10.83 11.1821 10.9681 11.0693 11.0808C10.9566 11.1936 10.8186 11.25 10.6553 11.25H7.15656ZM1.32531 6.58333C1.16204 6.58333 1.02403 6.52694 0.911294 6.41417C0.798556 6.30139 0.742188 6.16333 0.742188 6V1.33333C0.742188 1.17 0.798556 1.03194 0.911294 0.919167C1.02403 0.806389 1.16204 0.75 1.32531 0.75H4.82406C4.98734 0.75 5.12534 0.806389 5.23808 0.919167C5.35082 1.03194 5.40719 1.17 5.40719 1.33333V6C5.40719 6.16333 5.35082 6.30139 5.23808 6.41417C5.12534 6.52694 4.98734 6.58333 4.82406 6.58333H1.32531ZM4.24094 5.41667V1.91667H1.90844V5.41667H4.24094ZM1.32531 11.25C1.16204 11.25 1.02403 11.1936 0.911294 11.0808C0.798556 10.9681 0.742188 10.83 0.742188 10.6667V8.33333C0.742188 8.17 0.798556 8.03194 0.911294 7.91917C1.02403 7.80639 1.16204 7.75 1.32531 7.75H4.82406C4.98734 7.75 5.12534 7.80639 5.23808 7.91917C5.35082 8.03194 5.40719 8.17 5.40719 8.33333V10.6667C5.40719 10.83 5.35082 10.9681 5.23808 11.0808C5.12534 11.1936 4.98734 11.25 4.82406 11.25H1.32531ZM1.90844 10.0833H4.24094V8.91667H1.90844V10.0833ZM7.73969 10.0833H10.0722V6.58333H7.73969V10.0833ZM6.57344 1.33333C6.57344 1.17 6.62981 1.03194 6.74254 0.919167C6.85528 0.806389 6.99329 0.75 7.15656 0.75H10.6553C10.8186 0.75 10.9566 0.806389 11.0693 0.919167C11.1821 1.03194 11.2384 1.17 11.2384 1.33333V3.66667C11.2384 3.83 11.1821 3.96806 11.0693 4.08083C10.9566 4.19361 10.8186 4.25 10.6553 4.25H7.15656C6.99329 4.25 6.85528 4.19361 6.74254 4.08083C6.62981 3.96806 6.57344 3.83 6.57344 3.66667V1.33333ZM7.73969 1.91667V3.08333H10.0722V1.91667H7.73969Z" fill="#1F1F1F"/>
</svg>
